<svg xmlns="http://www.w3.org/2000/svg" viewBox="0 0 2640.12 802.9"><defs><style>.cls-1{fill:#fff;}.cls-2{fill:#f3ba2f;}</style></defs><g id="Layer_2" data-name="Layer 2"><g id="Layer_1-2" data-name="Layer 1"><circle cx="401.45" cy="401.45" r="364.26"/><polygon class="cls-1" points="203.15 400.5 327.94 275.72 452.8 400.57 525.41 327.96 327.94 130.49 130.54 327.89 203.15 400.5"/><polygon class="cls-1" points="350.06 402.39 474.85 527.18 599.7 402.33 672.36 474.9 672.32 474.94 474.85 672.41 277.45 475.01 277.35 474.91 350.06 402.39"/><path class="cls-2" d="M401.45,802.9A401.55,401.55,0,0,1,245.18,31.56,401.55,401.55,0,0,1,557.72,771.34,399,399,0,0,1,401.45,802.9Zm0-735.85c-184.39,0-334.4,150-334.4,334.4s150,334.39,334.4,334.39,334.39-150,334.39-334.39S585.83,67.05,401.45,67.05Z"/><path class="cls-1" d="M1111.94,283.54q-30.53-9.84-52.2-9.83-20.68,0-32.77,7.56t-12.11,22.19q0,18.66,17.4,28.49T1086,352.37q36.3,10.59,59.75,21.18a106,106,0,0,1,40.09,31.77q16.65,21.18,16.64,56,0,33.78-17.9,58.24t-49.17,37.06q-31.26,12.6-71.1,12.61a243.21,243.21,0,0,1-84.21-15.13Q938.71,539,908.46,512.73l31.77-65.05a214.85,214.85,0,0,0,61.52,38.83q34.8,14.63,63.54,14.62,24.7,0,38.58-9.07t13.87-26.23q0-13.6-9.33-22.44T1084.7,429q-14.37-5.53-39.58-12.6-36.31-10.1-59.25-20.18a104.19,104.19,0,0,1-39.59-30.76q-16.63-20.67-16.64-55,0-31.77,17.15-55.72T994.69,218q30.75-12.85,71.61-12.86a248,248,0,0,1,71.61,10.59q35.28,10.59,62.53,28.24L1169.68,310A268.24,268.24,0,0,0,1111.94,283.54Z"/><path class="cls-1" d="M1208,293.88l79.17-.51,60.51,194.15,58.5-194.15h76.14l59.51,194.15,59.5-194.15H1678l-98.84,271.3h-77.66l-58.49-179-58,179h-77.66Z"/><path class="cls-1" d="M1852,564.67V532.9q-13.62,17.16-35.3,26.23t-49.92,9.07q-42.87,0-68.08-23.45t-25.21-61.27q0-38.31,27-59.75t76.4-21.94h74.64v-5q0-21.67-14.38-33.54T1795,351.36q-37.83,0-80.69,23.7l-24.2-53.45q32.26-16.12,60.51-23.7t62-7.56q54.45,0,84.46,25.71t30.51,71.61l.5,177Zm-21.68-63.54q17.64-11.6,21.18-29.24V447.68h-61q-22.7,0-33.54,7.31t-10.84,23.45q0,15.65,11.35,25t31,9.33Q1812.62,512.73,1830.27,501.13Z"/><path class="cls-1" d="M2217.8,308.25q29,17.4,44.88,49.17t15.88,73.12q0,40.84-15.63,71.85t-44.13,48.16q-28.49,17.16-66.31,17.15-28.24,0-50.17-10.84a100.89,100.89,0,0,1-37.07-31.52V662.5H1987.6V293.37h77.65v39.84a97,97,0,0,1,36.56-31.52q21.95-10.83,49.17-10.84Q2188.8,290.85,2217.8,308.25Zm-36.56,174q18.65-20.91,18.65-54.21,0-32.77-18.65-53.7t-48.41-20.93q-29.76,0-48.67,20.93T2065.25,428q0,33.8,18.91,54.47t48.67,20.67Q2162.57,503.15,2181.24,482.22Z"/><path class="cls-1" d="M2295.2,211.68H2388l73.63,107.91,74.13-107.91H2630L2512.54,380.61l127.58,184.06h-95.31l-83.2-117.49-81.69,117.49h-93.3L2413.2,384.14Z"/></g></g></svg>